  <svg xmlns="http://www.w3.org/2000/svg" viewBox="0 -0.020691746845841408 97.88308715820312 100.02351379394531">
    <path d="M55.07 11.54a63.94 63.94 0 0 0-25-8.28A50 50 0 0 1 84.7 83.81a64.15 64.15 0 0 0-29.63-72.27z"
      fill="#00608c"></path>
    <path
      d="M48.61 62.6a56.63 56.63 0 0 1-28.37 29.11 51.19 51.19 0 0 1-6.33-5A49.76 49.76 0 0 1 0 64.53a13.23 13.23 0 0 0 6 4.38c9.3 3.27 20.71-5.07 25.47-18.62s1.09-27.19-8.21-30.47c-5-1.77-10.67-.12-15.55 3.89a10.3 10.3 0 0 1 6-1.27C20.24 23.12 24.85 30 24 37.88s-6.76 13.65-13.27 13S-.23 43.27.46 35.42 7.44 20 11.12 16.06A50.06 50.06 0 0 1 27.68 4.23c30.89 9.5 26.56 45.3 20.93 58.37z"
      fill="#65c5e9"></path>
    <path
      d="M57.46 27.54a61.23 61.23 0 0 0-5.62-11.18 59.2 59.2 0 0 1 13.22 75.2 61.06 61.06 0 0 1-4.66 6.85 50.24 50.24 0 0 1-23.7.34 61.5 61.5 0 0 0 20.76-71.21z"
      fill="#39a9e1"></path>
  </svg>
